<svg xmlns="http://www.w3.org/2000/svg" xmlns:xlink="http://www.w3.org/1999/xlink" width="500" zoomAndPan="magnify" viewBox="0 0 375 374.999991" height="500" preserveAspectRatio="xMidYMid meet" version="1.0"><defs><clipPath id="ad48011f11"><path d="M 20 25.09375 L 355 25.09375 L 355 349.84375 L 20 349.84375 Z M 20 25.09375 " clip-rule="nonzero"/></clipPath></defs><g clip-path="url(#ad48011f11)"><path fill="#0097b2" d="M 242.585938 349.792969 C 234.566406 349.792969 226.460938 348.578125 218.492188 346.191406 C 203.652344 341.738281 195.382812 339.886719 191.167969 339.117188 L 183.230469 339.085938 C 179 339.816406 170.707031 341.597656 155.859375 345.902344 C 148.117188 348.144531 140.246094 349.285156 132.46875 349.285156 C 113.96875 349.285156 96.441406 342.726562 83.105469 330.828125 C 68.839844 318.09375 60.132812 300.429688 57.929688 279.742188 C 56.285156 264.316406 58.671875 249.507812 65.039062 235.609375 C 49.496094 227.960938 36.390625 214.148438 28.324219 196.609375 C 20.675781 179.984375 18.320312 161.527344 21.691406 144.632812 C 25.703125 124.527344 37.554688 108.207031 54.199219 99.851562 C 61.800781 96.039062 69.972656 94.039062 78.496094 93.917969 C 79.78125 81.367188 83.46875 69.511719 89.324219 59.246094 C 100.054688 40.421875 117.332031 28.433594 136.710938 26.355469 C 138.703125 26.144531 140.730469 26.035156 142.734375 26.035156 C 159.4375 26.035156 175.453125 33.414062 187.851562 46.570312 C 200.789062 32.941406 217.289062 25.285156 234.28125 25.285156 C 238.75 25.285156 243.21875 25.816406 247.5625 26.875 C 266.496094 31.464844 282.125 45.621094 290.445312 65.714844 C 294.15625 74.667969 296.3125 84.628906 296.816406 94.921875 C 305.425781 95.089844 313.65625 97.160156 321.304688 101.082031 C 337.878906 109.589844 349.589844 126.019531 353.429688 146.160156 C 356.65625 163.078125 354.144531 181.515625 346.359375 198.066406 C 338.304688 215.1875 325.355469 228.746094 310.070312 236.34375 C 316.449219 250.417969 318.773438 265.375 316.980469 280.929688 C 314.621094 301.449219 305.863281 318.945312 291.664062 331.527344 C 278.378906 343.304688 260.949219 349.792969 242.589844 349.792969 L 242.585938 349.792969 " fill-opacity="1" fill-rule="nonzero"/></g><path fill="#ffffff" d="M 242.585938 341.964844 C 235.332031 341.964844 227.980469 340.863281 220.742188 338.691406 C 203.121094 333.40625 194.347656 331.660156 190.640625 331.085938 L 183.835938 331.054688 C 180.109375 331.601562 171.296875 333.273438 153.679688 338.382812 C 146.644531 340.421875 139.507812 341.453125 132.46875 341.453125 C 115.898438 341.453125 100.214844 335.605469 88.320312 324.984375 C 75.523438 313.566406 67.707031 297.636719 65.714844 278.914062 C 63.589844 258.976562 69.046875 243.410156 75.914062 231.628906 C 59.097656 226.058594 44.132812 212.238281 35.4375 193.335938 C 28.476562 178.199219 26.320312 161.449219 29.371094 146.167969 C 32.90625 128.441406 43.234375 114.113281 57.714844 106.847656 C 64.46875 103.457031 71.746094 101.742188 79.351562 101.742188 C 81.515625 101.742188 83.679688 101.878906 85.839844 102.160156 C 86.109375 88.042969 89.648438 74.476562 96.125 63.121094 C 105.601562 46.507812 120.699219 35.949219 137.542969 34.140625 C 139.261719 33.957031 141.011719 33.863281 142.734375 33.863281 C 160.15625 33.863281 176.429688 43.101562 187.804688 58.78125 C 199.808594 42.640625 216.625 33.113281 234.28125 33.113281 C 238.128906 33.113281 241.976562 33.574219 245.71875 34.484375 C 262.191406 38.476562 275.859375 50.953125 283.210938 68.710938 C 287.550781 79.191406 289.515625 91.054688 289.023438 103.175781 C 291.230469 102.886719 293.453125 102.738281 295.675781 102.738281 C 303.445312 102.738281 310.863281 104.527344 317.726562 108.046875 C 332.140625 115.449219 342.351562 129.871094 345.738281 147.625 C 348.65625 162.9375 346.359375 179.667969 339.269531 194.738281 C 330.578125 213.21875 315.796875 226.796875 299.242188 232.386719 C 306.085938 244.265625 311.515625 259.964844 309.207031 280.035156 C 307.066406 298.605469 299.203125 314.382812 286.472656 325.667969 C 274.617188 336.175781 259.035156 341.964844 242.589844 341.964844 L 242.585938 341.964844 " fill-opacity="1" fill-rule="nonzero"/><path fill="#0097b2" d="M 337.070312 154.410156 C 336.925781 152.792969 336.707031 151.171875 336.386719 149.589844 C 333.578125 134.875 325.230469 123.003906 313.5 116.992188 C 307.964844 114.152344 301.953125 112.714844 295.65625 112.714844 C 289.542969 112.714844 283.460938 114.082031 277.707031 116.636719 C 281.015625 101.347656 279.867188 85.730469 274.433594 72.671875 C 268.316406 57.847656 257.054688 47.449219 243.5625 44.214844 C 240.542969 43.457031 237.410156 43.097656 234.28125 43.097656 C 215.214844 43.097656 197.261719 57.058594 187.621094 77.960938 C 178.839844 57.488281 161.859375 43.855469 142.71875 43.855469 C 141.316406 43.855469 139.910156 43.925781 138.507812 44.066406 C 124.695312 45.542969 112.246094 54.359375 104.328125 68.207031 C 97.242188 80.621094 94.222656 96.164062 95.765625 111.957031 C 95.875 113.035156 95.984375 114.082031 96.128906 115.121094 C 90.730469 112.929688 85.046875 111.707031 79.363281 111.707031 C 73.175781 111.707031 67.308594 113.109375 61.839844 115.84375 C 50.078125 121.746094 41.625 133.542969 38.707031 148.1875 C 38.3125 150.238281 38.023438 152.324219 37.808594 154.410156 C 37.378906 159.199219 37.519531 164.125 38.203125 169.015625 C 39.105469 175.78125 41.046875 182.546875 44.03125 189.023438 C 53.929688 210.5 72.886719 224.351562 92.351562 224.351562 L 92.816406 224.351562 C 81.738281 238.023438 72.746094 254.859375 75.1875 277.816406 C 76.917969 293.96875 83.609375 307.675781 94.511719 317.386719 C 104.691406 326.492188 118.183594 331.496094 132.464844 331.496094 C 138.65625 331.496094 144.914062 330.554688 151.136719 328.757812 C 172.6875 322.496094 181.753906 321.203125 184.703125 320.914062 L 189.847656 320.914062 C 192.796875 321.238281 201.832031 322.644531 223.382812 329.117188 C 229.746094 331.027344 236.226562 331.996094 242.59375 331.996094 C 249.679688 331.996094 256.589844 330.769531 262.953125 328.398438 C 269.324219 326.023438 275.226562 322.570312 280.292969 318.070312 C 291.164062 308.429688 297.890625 294.867188 299.726562 278.855469 C 302.347656 255.941406 293.535156 238.996094 282.5625 225.214844 C 301.882812 225.179688 320.738281 211.507812 330.699219 190.351562 C 333.941406 183.480469 336.027344 176.25 336.925781 169.015625 C 337.535156 164.089844 337.609375 159.199219 337.070312 154.410156 " fill-opacity="1" fill-rule="nonzero"/><path fill="#ffffff" d="M 249.96875 214.953125 C 238.335938 202.355469 232.5 185.125 220.179688 173.148438 C 214.09375 167.230469 206.5 162.480469 198.363281 160.46875 C 197.835938 160.339844 187.972656 158.738281 187.964844 159.769531 C 187.96875 158.738281 178.089844 160.246094 177.5625 160.371094 C 169.40625 162.304688 161.773438 166.988281 155.636719 172.847656 C 143.214844 184.714844 137.234375 201.886719 125.496094 214.378906 C 108.933594 232.011719 88.992188 248.183594 91.945312 275.859375 C 95.125 305.71875 120.363281 319.429688 146.617188 311.816406 C 181.855469 301.597656 187.355469 303.351562 187.355469 303.351562 C 187.355469 303.351562 192.875 301.648438 228.027344 312.191406 C 254.214844 320.046875 279.566406 306.570312 283 276.742188 C 286.183594 249.09375 266.382812 232.738281 249.96875 214.953125 " fill-opacity="1" fill-rule="nonzero"/><path fill="#ffffff" d="M 261.195312 113.140625 C 255.769531 137.570312 237.367188 153.96875 220.09375 149.785156 C 202.820312 145.59375 193.214844 122.402344 198.644531 97.976562 C 204.070312 73.550781 222.476562 57.152344 239.75 61.335938 C 257.023438 65.527344 266.625 88.71875 261.195312 113.140625 " fill-opacity="1" fill-rule="nonzero"/><path fill="#ffffff" d="M 176.832031 103.28125 C 179.28125 128.222656 166.871094 149.984375 149.113281 151.890625 C 131.351562 153.792969 114.972656 135.117188 112.519531 110.171875 C 110.070312 85.234375 122.480469 63.472656 140.242188 61.566406 C 158 59.664062 174.382812 78.339844 176.832031 103.28125 " fill-opacity="1" fill-rule="nonzero"/><path fill="#ffffff" d="M 112.480469 154.671875 C 121.710938 174.738281 117.269531 196.988281 102.566406 204.367188 C 87.863281 211.75 68.457031 201.460938 59.230469 181.394531 C 49.996094 161.328125 54.433594 139.078125 69.140625 131.699219 C 83.847656 124.320312 103.246094 134.605469 112.480469 154.671875 " fill-opacity="1" fill-rule="nonzero"/><path fill="#ffffff" d="M 262.558594 155.363281 C 253.160156 175.347656 257.410156 197.636719 272.054688 205.152344 C 286.695312 212.664062 306.183594 202.558594 315.582031 182.578125 C 324.984375 162.597656 320.734375 140.308594 306.089844 132.792969 C 291.449219 125.277344 271.957031 135.386719 262.558594 155.363281 " fill-opacity="1" fill-rule="nonzero"/></svg>